<svg xmlns="http://www.w3.org/2000/svg" viewBox="0 0 800 500">
  <!-- Background -->
  <rect width="800" height="500" fill="#f8f9fa"/>
  
  <!-- Title -->
  <text x="400" y="30" text-anchor="middle" font-family="Arial, sans-serif" font-size="18" font-weight="bold" fill="#333">Redukon Architecture</text>
  
  <!-- Main Box -->
  <rect x="50" y="50" width="700" height="400" rx="10" fill="none" stroke="#ff6b6b" stroke-width="2"/>
  
  <!-- CLI Box -->
  <rect x="80" y="80" width="160" height="80" rx="5" fill="#e3f2fd" stroke="#2196f3" stroke-width="2"/>
  <text x="160" y="115" text-anchor="middle" font-family="Arial" font-size="14" font-weight="bold" fill="#1565c0">CLI</text>
  <text x="160" y="135" text-anchor="middle" font-family="Arial" font-size="10" fill="#666">Commands</text>
  
  <!-- API Box -->
  <rect x="260" y="80" width="160" height="80" rx="5" fill="#e8f5e9" stroke="#4caf50" stroke-width="2"/>
  <text x="340" y="115" text-anchor="middle" font-family="Arial" font-size="14" font-weight="bold" fill="#2e7d32">API Server</text>
  <text x="340" y="135" text-anchor="middle" font-family="Arial" font-size="10" fill="#666">REST Endpoints</text>
  
  <!-- Batch Box -->
  <rect x="440" y="80" width="160" height="80" rx="5" fill="#fff3e0" stroke="#ff9800" stroke-width="2"/>
  <text x="520" y="115" text-anchor="middle" font-family="Arial" font-size="14" font-weight="bold" fill="#e65100">Batch Mode</text>
  <text x="520" y="135" text-anchor="middle" font-family="Arial" font-size="10" fill="#666">Multiple Prompts</text>
  
  <!-- Arrows from top to Ollama -->
  <line x1="160" y1="160" x2="160" y2="200" stroke="#666" stroke-width="2" marker-end="url(#arrow)"/>
  <line x1="340" y1="160" x2="340" y2="200" stroke="#666" stroke-width="2"/>
  <line x1="520" y1="160" x2="520" y2="200" stroke="#666" stroke-width="2"/>
  
  <!-- Arrow marker -->
  <defs>
    <marker id="arrow" markerWidth="10" markerHeight="10" refX="9" refY="3" orient="auto" markerUnits="strokeWidth">
      <path d="M0,0 L0,6 L9,3 z" fill="#666"/>
    </marker>
  </defs>
  
  <!-- Ollama Box -->
  <rect x="250" y="200" width="300" height="60" rx="5" fill="#fce4ec" stroke="#e91e63" stroke-width="2"/>
  <text x="400" y="230" text-anchor="middle" font-family="Arial" font-size="14" font-weight="bold" fill="#c2185b">Ollama API</text>
  <text x="400" y="248" text-anchor="middle" font-family="Arial" font-size="10" fill="#666">Local Models Runtime</text>
  
  <!-- Arrow to Models -->
  <line x1="400" y1="260" x2="400" y2="290" stroke="#666" stroke-width="2"/>
  
  <!-- Models Box -->
  <rect x="280" y="290" width="240" height="50" rx="5" fill="#f3e5f5" stroke="#9c27b0" stroke-width="2"/>
  <text x="400" y="320" text-anchor="middle" font-family="Arial" font-size="12" font-weight="bold" fill="#7b1fa2">Qwen / Llama / Phi Models</text>
  <text x="400" y="335" text-anchor="middle" font-family="Arial" font-size="10" fill="#666">0.5b - 4b</text>
  
  <!-- Bottom section -->
  <rect x="80" y="360" width="300" height="70" rx="5" fill="#e0f7fa" stroke="#00bcd4" stroke-width="2"/>
  <text x="230" y="385" text-anchor="middle" font-family="Arial" font-size="12" font-weight="bold" fill="#00838f">Logging</text>
  <text x="230" y="405" text-anchor="middle" font-family="Arial" font-size="10" fill="#666">log/api-YYYY-MM-DD.log</text>
  
  <rect x="420" y="360" width="300" height="70" rx="5" fill="#fbe9e7" stroke="#ff5722" stroke-width="2"/>
  <text x="570" y="385" text-anchor="middle" font-family="Arial" font-size="12" font-weight="bold" fill="#d84315">Config</text>
  <text x="570" y="405" text-anchor="middle" font-family="Arial" font-size="10" fill="#666">~/.redukon/config.json</text>
</svg>