<svg xmlns="http://www.w3.org/2000/svg" viewBox="0 0 800 520">
  <defs>
    <marker id="arrow" markerWidth="8" markerHeight="8" refX="8" refY="4" orient="auto">
      <path d="M0,0 L8,4 L0,8 Z" fill="#666"/>
    </marker>
  </defs>
  
  <!-- Background -->
  <rect width="800" height="520" fill="#fafafa"/>
  
  <!-- Title -->
  <text x="400" y="25" text-anchor="middle" font-family="Arial, sans-serif" font-size="16" font-weight="bold" fill="#333">Redukon Architecture</text>
  
  <!-- Main Container -->
  <rect x="50" y="40" width="700" height="460" rx="8" fill="none" stroke="#ddd" stroke-width="1"/>
  
  <!-- Top Row: CLI, API, Batch -->
  <!-- CLI -->
  <rect x="80" y="70" width="140" height="70" rx="6" fill="#e3f2fd" stroke="#2196f3" stroke-width="2"/>
  <text x="150" y="100" text-anchor="middle" font-family="Arial" font-size="13" font-weight="bold" fill="#1565c0">CLI</text>
  <text x="150" y="118" text-anchor="middle" font-family="Arial" font-size="9" fill="#666">Commands</text>
  
  <!-- API -->
  <rect x="240" y="70" width="140" height="70" rx="6" fill="#e8f5e9" stroke="#4caf50" stroke-width="2"/>
  <text x="310" y="100" text-anchor="middle" font-family="Arial" font-size="13" font-weight="bold" fill="#2e7d32">API Server</text>
  <text x="310" y="118" text-anchor="middle" font-family="Arial" font-size="9" fill="#666">REST Endpoints</text>
  
  <!-- Batch -->
  <rect x="400" y="70" width="140" height="70" rx="6" fill="#fff3e0" stroke="#ff9800" stroke-width="2"/>
  <text x="470" y="100" text-anchor="middle" font-family="Arial" font-size="13" font-weight="bold" fill="#e65100">Batch Mode</text>
  <text x="470" y="118" text-anchor="middle" font-family="Arial" font-size="9" fill="#666">Multiple Prompts</text>
  
  <!-- Middle Row: Ollama -->
  <rect x="250" y="180" width="300" height="60" rx="6" fill="#fce4ec" stroke="#e91e63" stroke-width="2"/>
  <text x="400" y="205" text-anchor="middle" font-family="Arial" font-size="13" font-weight="bold" fill="#c2185b">Ollama API</text>
  <text x="400" y="222" text-anchor="middle" font-family="Arial" font-size="9" fill="#666">Local Models Runtime</text>
  
  <!-- Bottom Row: Models -->
  <rect x="280" y="280" width="240" height="50" rx="6" fill="#f3e5f5" stroke="#9c27b0" stroke-width="2"/>
  <text x="400" y="302" text-anchor="middle" font-family="Arial" font-size="11" font-weight="bold" fill="#7b1fa2">Qwen / Llama / Phi Models</text>
  <text x="400" y="318" text-anchor="middle" font-family="Arial" font-size="9" fill="#666">0.5b - 4b</text>
  
  <!-- Bottom Section: Logging & Config -->
  <rect x="80" y="370" width="320" height="60" rx="6" fill="#e0f7fa" stroke="#00acc1" stroke-width="2"/>
  <text x="240" y="395" text-anchor="middle" font-family="Arial" font-size="11" font-weight="bold" fill="#00838f">Logging</text>
  <text x="240" y="412" text-anchor="middle" font-family="Arial" font-size="9" fill="#666">log/api-YYYY-MM-DD.log</text>
  
  <rect x="420" y="370" width="320" height="60" rx="6" fill="#fbe9e7" stroke="#ff5722" stroke-width="2"/>
  <text x="580" y="395" text-anchor="middle" font-family="Arial" font-size="11" font-weight="bold" fill="#d84315">Config</text>
  <text x="580" y="412" text-anchor="middle" font-family="Arial" font-size="9" fill="#666">~/.redukon/config.json</text>
  
  <!-- Arrows with markers -->
  <line x1="150" y1="140" x2="150" y2="178" stroke="#999" stroke-width="1.5" marker-end="url(#arrow)"/>
  <line x1="310" y1="140" x2="310" y2="178" stroke="#999" stroke-width="1.5" marker-end="url(#arrow)"/>
  <line x1="470" y1="140" x2="470" y2="178" stroke="#999" stroke-width="1.5" marker-end="url(#arrow)"/>
  
  <line x1="400" y1="240" x2="400" y2="278" stroke="#999" stroke-width="1.5" marker-end="url(#arrow)"/>
</svg>